<svg width="462" height="123" viewBox="0 0 462 123" fill="none" xmlns="http://www.w3.org/2000/svg">
<mask id="path-1-inside-1_337_29" fill="white">
<path fill-rule="evenodd" clip-rule="evenodd" d="M1.07333 0.675914C-0.289788 1.63611 -0.362092 4.12228 0.899603 6.6475C1.397 7.64333 2.08365 9.33722 2.42577 10.4112C2.7674 11.4851 3.19346 12.4736 3.37204 12.6079C3.818 12.9422 6.79414 20.5081 6.79074 21.2984C6.78929 21.6485 7.33424 22.7429 8.00149 23.7304C8.66873 24.7185 9.21465 25.8266 9.21465 26.1936C9.21465 26.5607 9.516 27.5532 9.88432 28.3991C10.2531 29.2451 11.0417 31.1455 11.6376 32.6221C12.233 34.0988 13.1327 36.2286 13.6364 37.3548C14.1406 38.481 14.5526 39.5622 14.5526 39.757C14.5526 39.9523 14.8413 40.4585 15.1941 40.8822C15.5474 41.3064 16.1278 42.6415 16.484 43.8497C16.8406 45.0579 17.3836 46.4857 17.6908 47.0227C17.998 47.5596 18.6463 49.0973 19.1316 50.4397C19.9963 52.8332 20.6136 54.3381 22.3334 58.2502C25.6244 65.7351 30.5664 78.182 30.5664 78.986C30.5664 79.2603 30.7848 79.4849 31.0517 79.4849C31.3186 79.4849 31.5369 79.9086 31.5369 80.4265C31.5369 80.944 31.8674 81.7001 32.2711 82.1068C32.6754 82.5129 33.1451 83.5722 33.3154 84.4601C33.4858 85.3481 33.9196 86.5084 34.2797 87.0381C34.6392 87.5672 34.9338 88.3981 34.9338 88.8838C34.9338 89.3695 35.2614 89.8933 35.6617 90.0475C36.0621 90.2023 36.3896 90.8755 36.3896 91.5437C36.3896 92.212 37.1539 94.3789 38.088 96.3594C39.0222 98.3393 39.7865 100.282 39.7865 100.677C39.7865 101.072 39.9806 101.515 40.2179 101.663C40.4552 101.81 40.7997 102.537 40.9836 103.278C41.1675 104.019 41.8464 105.686 42.4933 106.984C43.1397 108.281 43.6686 109.546 43.6686 109.795C43.6686 111.434 50.7627 119.513 52.2015 119.513C52.5796 119.513 52.8887 119.693 52.8887 119.912C52.8887 123.211 69.8677 123.881 75.211 120.792C76.412 120.098 77.8508 119.326 78.4079 119.076C79.5682 118.556 84.9163 112.761 84.9163 112.024C84.9163 111.756 85.2031 111.189 85.553 110.765C85.9033 110.341 86.5847 109.006 87.067 107.798C87.5494 106.59 88.1264 105.162 88.3496 104.625C89.9835 100.691 91.2248 97.5353 91.2248 97.3171C91.2248 97.1751 89.6307 97.0584 87.6823 97.0584C84.1035 97.0584 82.9782 97.5192 82.9723 98.9866C82.9704 99.403 82.6428 100.372 82.2444 101.141C81.8455 101.911 81.5194 102.941 81.5194 103.431C81.5194 103.922 81.32 104.447 81.0764 104.599C80.8323 104.75 80.1583 105.86 79.5784 107.066C76.33 113.815 65.659 118.335 59.9911 115.361C59.2263 114.96 58.3426 114.632 58.0272 114.632C56.9475 114.632 51.4329 109.799 51.4329 108.853C51.4329 108.607 51.1053 108.132 50.705 107.798C50.3046 107.463 49.9771 106.661 49.9771 106.014C49.9771 105.367 49.6495 104.712 49.2492 104.557C48.8488 104.403 48.5213 103.764 48.5213 103.137C48.5213 102.51 48.3199 101.872 48.0734 101.719C47.8269 101.566 47.4726 100.742 47.2863 99.8873C47.0999 99.033 46.6462 98.0313 46.2784 97.6613C45.9106 97.2913 45.6097 96.4482 45.6097 95.7877C45.6097 95.1273 45.2821 94.4605 44.8818 94.3062C44.4669 94.1461 44.1539 93.4178 44.1539 92.6128C44.1539 91.6829 43.9054 91.2006 43.426 91.2006C42.9038 91.2006 42.6981 90.6641 42.6981 89.3002C42.6981 88.1428 42.4385 87.2997 42.0342 87.1435C41.6693 87.0024 41.2505 86.3752 41.1035 85.7489C40.6362 83.7587 39.4842 80.9381 38.8975 80.3479C38.5859 80.0345 38.3307 79.4244 38.3307 78.9923C38.3307 78.5603 38.0099 77.7807 37.6183 77.2594C37.2262 76.7385 36.8987 75.7076 36.8904 74.9695C36.8812 74.1562 36.6089 73.627 36.1999 73.627C35.8102 73.627 35.4259 72.9568 35.2905 72.0405C34.9721 69.8917 33.8555 67.1239 33.1141 66.6464C32.7807 66.4317 32.5075 65.7941 32.5075 65.2293C32.5075 64.6645 31.8524 62.8076 31.0517 61.103C30.251 59.3983 29.5891 57.6195 29.5803 57.1504C29.5721 56.6813 29.2445 55.8709 28.8524 55.3501C28.4608 54.8287 28.1401 53.9984 28.1401 53.5039C28.1401 53.0099 27.8125 52.4793 27.4122 52.325C27.0118 52.1703 26.6775 51.4634 26.6687 50.7536C26.6605 50.0439 26.3329 49.0368 25.9408 48.5159C25.5492 47.9946 25.2285 47.0881 25.2285 46.5008C25.2285 45.9141 24.9009 45.1604 24.5006 44.826C24.1002 44.4916 23.7659 43.7511 23.7571 43.1799C23.7489 42.6083 23.4213 41.7145 23.0292 41.1936C22.6376 40.6723 22.3169 39.943 22.3169 39.572C22.3169 39.2015 21.9893 38.5688 21.589 38.1661C21.1886 37.7634 20.8611 36.7905 20.8611 36.0046C20.8611 35.2181 20.6572 34.5748 20.4083 34.5748C20.1594 34.5748 19.8173 34.0807 19.6474 33.4764C19.4776 32.8721 19.051 31.7191 18.7002 30.9136C18.3488 30.1082 17.3521 27.8016 16.4859 25.788C15.6192 23.7744 14.6113 21.544 14.2459 20.8313C13.881 20.1186 13.5821 19.1018 13.5821 18.5721C13.5821 18.0425 13.2545 17.3356 12.8542 17.0012C12.4538 16.6668 12.1263 15.9781 12.1263 15.4704C12.1263 14.9627 11.9215 14.1655 11.6711 13.6994C10.9189 12.2989 8.86769 7.55692 8.52606 6.42783C8.35039 5.8479 7.88745 5.10737 7.49729 4.78178C7.10762 4.45618 6.78832 3.67611 6.78832 3.04834C6.78832 0.502132 3.3468 -0.926205 1.07333 0.675914ZM378.988 0.483583C374.463 0.88631 371.983 1.52335 370.968 2.54457C370.537 2.97805 369.887 3.33293 369.525 3.33293C368.06 3.33293 360.063 9.47244 360.063 10.5976C360.063 10.8979 359.881 11.1434 359.659 11.1434C358.483 11.1434 354.462 19.1037 353.762 22.8205C351.967 32.341 353.908 42.4399 358.434 47.1281C359.336 48.0629 360.345 49.2091 360.675 49.6753C361.421 50.7297 367.01 54.5891 367.79 54.5891C368.105 54.5891 369.17 55.0084 370.157 55.5209C372.919 56.9551 374.213 57.4169 376.28 57.7059C377.326 57.8519 378.309 58.1633 378.464 58.3976C378.802 58.9087 382.895 59.8626 387.238 60.442C388.973 60.6734 391.484 61.1127 392.818 61.4183C395.989 62.1447 400.536 62.8276 405.795 63.3665C408.128 63.6057 410.279 63.9513 410.573 64.1349C410.868 64.318 413.327 64.7558 416.036 65.1073C422.761 65.9801 432.365 68.0924 433.136 68.868C433.336 69.0692 434.212 69.2337 435.083 69.2337C435.953 69.2337 436.964 69.5344 437.329 69.9015C437.695 70.269 438.529 70.7401 439.184 70.949C439.839 71.158 441.189 71.8458 442.184 72.4779C443.18 73.1101 444.117 73.627 444.267 73.627C445.479 73.627 451.511 79.4527 452.077 81.1705C452.25 81.6952 452.69 82.4245 453.055 82.7921C453.42 83.1592 453.726 84.158 453.735 85.0113C453.743 85.865 454.071 86.9898 454.463 87.5106C455.401 88.7583 455.427 95.6018 454.502 97.7169C454.132 98.5629 453.354 100.595 452.773 102.232C451.786 105.009 450.915 106.274 447.424 109.994C445.81 111.714 440.529 114.629 439.007 114.639C438.425 114.643 437.075 114.952 436.007 115.326C433.301 116.273 361.906 116.194 360.96 115.242C360.627 114.907 359.734 114.632 358.976 114.632C357.477 114.632 355.656 113.489 352.443 110.534C350.172 108.445 349.109 106.451 345.777 98.0347C345.299 96.8265 344.387 94.6987 343.75 93.306C343.114 91.9133 342.592 90.5953 342.59 90.377C342.588 90.1588 342.266 89.3597 341.872 88.6011C341.479 87.8426 340.384 85.2065 339.438 82.7433C338.493 80.2801 337.396 77.6426 337.002 76.8825C336.607 76.1225 336.285 75.0788 336.285 74.5638C336.285 74.0488 336.071 73.627 335.809 73.627C335.547 73.627 335.186 73.0374 335.006 72.3173C334.826 71.5968 334.386 70.4433 334.029 69.7545C333.671 69.0652 333.378 68.252 333.376 67.9469C333.374 67.6423 333.047 66.7636 332.648 65.9943C332.25 65.2254 331.922 64.2389 331.92 63.8015C331.919 63.3646 331.59 62.7339 331.189 62.3995C330.789 62.0651 330.461 61.5853 330.461 61.3334C330.461 61.081 329.941 59.7352 329.306 58.342C328.67 56.9493 328.031 55.3701 327.886 54.8331C327.74 54.2962 326.646 51.5503 325.455 48.7312C324.263 45.9121 322.393 41.4089 321.299 38.7241C320.204 36.0392 319.003 33.1835 318.629 32.3781C317.399 29.7308 314.448 22.4544 314.437 22.0424C314.388 20.2255 312.668 19.3971 309.244 19.5406L305.778 19.6861L306.761 22.1268C307.302 23.4693 308.052 25.1505 308.427 25.8632C308.803 26.5759 309.11 27.476 309.11 27.8631C309.11 28.7394 310.468 31.5282 311.081 31.909C311.331 32.0647 311.536 32.525 311.536 32.9326C311.536 33.7488 314.135 40.1378 316.747 45.7422C317.67 47.7227 319.256 51.5669 320.271 54.2849C321.286 57.003 322.697 60.5445 323.407 62.1554C324.695 65.0765 326.685 70.1187 327.645 72.8948C327.923 73.7003 328.77 75.6773 329.525 77.2882C330.281 78.8991 331.89 82.6335 333.1 85.5868C334.31 88.5401 335.849 92.0002 336.52 93.2757C337.192 94.5508 337.74 96.0206 337.74 96.5419C337.74 97.0628 337.934 97.6095 338.171 97.7565C338.407 97.9034 338.745 98.7953 338.921 99.7379C339.096 100.681 339.445 101.452 339.694 101.452C339.944 101.452 340.291 102.056 340.466 102.794C340.641 103.532 341.062 104.686 341.401 105.357C341.741 106.028 342.601 107.842 343.314 109.389C344.908 112.847 348.088 116.971 349.608 117.553C350.231 117.791 350.818 118.166 350.913 118.386C351.008 118.606 352.892 119.633 355.101 120.667L359.116 122.548L399.027 122.517L438.937 122.485L442.81 120.923C444.94 120.064 447.229 118.953 447.896 118.453C448.563 117.953 449.62 117.164 450.244 116.698C453.343 114.387 459.542 106.329 459.542 104.614C459.542 104.52 459.804 103.826 460.124 103.07C460.706 101.697 462.014 94.2667 462 92.421C461.977 89.4369 461.052 83.6762 460.375 82.2981C459.945 81.4219 459.476 80.1561 459.332 79.4849C458.614 76.1191 451.34 68.8314 446.293 66.4204C438.659 62.7734 437.391 62.2721 434.942 61.9382C433.506 61.742 432.077 61.3261 431.767 61.0141C431.457 60.7022 430.487 60.4469 429.611 60.4469C428.736 60.4469 427.197 60.1359 426.19 59.7562C425.184 59.3764 422.744 58.9468 420.767 58.8018C418.791 58.6568 416.946 58.3088 416.667 58.0281C416.388 57.7474 414.293 57.5111 412.011 57.5024C409.134 57.4916 407.573 57.2671 406.92 56.7701C406.282 56.2849 404.778 56.0535 402.265 56.0535C400.223 56.0535 397.481 55.7265 396.171 55.3267C394.861 54.9269 392.909 54.5974 391.835 54.5944C390.759 54.5915 389.449 54.2869 388.923 53.9178C388.397 53.5483 387.092 53.1436 386.025 53.0187C383.332 52.7023 379.496 51.6987 377.857 50.881C377.101 50.5042 375.968 50.1957 375.338 50.1957C374.708 50.1957 374.06 49.9794 373.897 49.7148C373.735 49.4503 372.471 48.6897 371.088 48.0239C367.94 46.5082 362.88 41.5134 361.759 38.8139C361.293 37.6906 360.592 36.1124 360.202 35.307C359.336 33.5169 359.547 26.4182 360.542 23.8354C364.19 14.373 369.893 9.11999 378.26 7.51592C380.766 7.03509 388.097 6.83983 406.205 6.771C431.518 6.67532 433.662 6.81347 436.735 8.7407C437.473 9.20347 437.893 9.38653 440.211 10.2545C441.893 10.8847 447.896 16.9851 447.896 18.0644C447.896 18.5218 448.115 19.0324 448.383 19.1989C449.133 19.6656 450.808 23.6406 450.808 24.9562C450.808 25.602 451.009 26.7672 451.256 27.5458C451.502 28.324 451.841 29.7948 452.01 30.8135C452.601 34.3946 457.546 34.2443 458.266 30.6232C458.702 28.4318 458.094 24.2957 457.291 23.9857C456.862 23.8202 456.631 22.9147 456.631 21.3995C456.631 18.8826 452.699 11.1434 451.421 11.1434C451.084 11.1434 450.808 10.9115 450.808 10.6279C450.808 8.58791 441.399 2.4196 436.007 0.923898C433.818 0.317123 385.091 -0.0592433 378.988 0.483583ZM132.413 1.16651C131.18 1.54873 129.898 2.19261 129.564 2.59729C129.23 3.00196 128.565 3.33293 128.087 3.33293C127.212 3.33293 125.295 4.73393 123.81 6.45907C123.37 6.97017 122.198 8.27939 121.207 9.36798C120.215 10.4566 119.269 11.9606 119.105 12.7099C118.942 13.4592 118.607 14.0723 118.361 14.0723C118.115 14.0723 117.914 14.4697 117.914 14.9554C117.914 15.4411 117.594 16.2646 117.202 16.786C116.81 17.3068 116.482 18.2006 116.474 18.7723C116.465 19.3434 116.131 20.0839 115.731 20.4183C115.33 20.7527 115.003 21.6651 115.003 22.4461C115.003 23.2579 114.691 23.9862 114.275 24.1468C113.875 24.3016 113.547 24.7023 113.547 25.0372C113.547 25.3726 112.564 27.9071 111.363 30.6695C110.162 33.432 109.18 36.0729 109.18 36.5381C109.18 37.0033 108.852 37.6574 108.452 37.9918C108.051 38.3262 107.724 38.9018 107.724 39.2708C107.724 39.6398 107.083 41.3152 106.3 42.9939C105.516 44.6727 104.728 46.6527 104.547 47.3932C104.367 48.1342 104.025 48.8611 103.788 49.0085C103.551 49.1564 103.356 49.7861 103.356 50.409C103.356 51.0314 103.029 51.8139 102.629 52.1483C102.228 52.4827 101.901 53.2627 101.901 53.8817C101.901 54.5007 101.619 55.2979 101.276 55.6527C100.538 56.4138 98.9891 60.3815 98.9891 61.5091C98.9891 61.9416 98.6615 62.4215 98.2612 62.5762C97.8608 62.7305 97.5333 63.3709 97.5333 63.9992C97.5333 64.6279 97.2125 65.5681 96.8209 66.0895C96.4288 66.6103 96.1012 67.4373 96.093 67.9259C96.0843 68.415 95.7499 69.1448 95.3496 69.5475C94.9492 69.9503 94.6217 70.7977 94.6217 71.4304C94.6217 72.063 94.2941 72.9104 93.8938 73.3132C93.4934 73.7159 93.1659 74.3705 93.1659 74.7674C93.1659 75.1647 92.6238 76.553 91.9614 77.8535C90.6463 80.4348 87.8279 87.2114 87.8279 87.7918C87.8279 88.2092 93.59 88.7261 94.5003 88.3908C94.8342 88.2677 95.1069 87.9553 95.1069 87.6966C95.1069 87.4374 95.4515 86.8789 95.8727 86.4552C96.2934 86.032 96.5326 85.2788 96.4036 84.7823C96.274 84.2854 96.3657 83.7567 96.6069 83.6069C97.2523 83.2056 100.93 75.1462 100.93 74.1333C100.93 73.8218 101.455 72.4272 102.095 71.034C102.736 69.6413 103.406 68.0074 103.584 67.4031C103.762 66.7987 104.111 66.3047 104.36 66.3047C104.608 66.3047 104.812 65.7975 104.812 65.1776C104.812 64.5576 105.133 63.6243 105.525 63.1029C105.917 62.5821 106.244 61.8591 106.253 61.4969C106.269 60.7998 106.953 59.1435 109.233 54.2849C110.005 52.6413 110.635 50.8557 110.635 50.3177C110.635 49.7793 110.963 49.0656 111.363 48.7312C111.764 48.3968 112.093 47.876 112.094 47.5733C112.096 47.2702 112.39 46.4589 112.747 45.7696C113.104 45.0808 113.546 43.9214 113.728 43.1936C113.909 42.4658 114.614 40.6132 115.295 39.077C115.975 37.5403 116.823 35.6243 117.178 34.8188C117.533 34.0134 118.336 32.0364 118.961 30.4255C119.586 28.8145 120.262 27.4233 120.462 27.334C120.663 27.2442 120.826 26.799 120.826 26.344C120.826 25.889 121.124 25.0836 121.488 24.5544C121.853 24.0248 122.317 23.0421 122.519 22.3709C122.722 21.6997 123.515 19.7866 124.283 18.1201C125.05 16.453 125.679 14.972 125.679 14.8285C125.679 14.5156 127.492 12.3369 128.805 11.0711C130.246 9.68381 134.952 7.62478 138.113 6.99946C140.381 6.55084 146.027 7.67701 146.951 8.76267C147.38 9.26644 148.065 9.67991 148.473 9.68137C149.334 9.68381 152.854 12.8002 152.854 13.5593C152.854 13.8414 153.017 14.0748 153.218 14.0777C153.418 14.0811 154 15.0144 154.512 16.1523C155.024 17.2907 155.734 18.8596 156.089 19.6392C156.445 20.4188 156.736 21.2516 156.736 21.4898C156.736 21.7285 157.364 23.2872 158.132 24.9542C158.9 26.6208 159.678 28.4787 159.863 29.083C160.047 29.6874 160.385 30.1814 160.612 30.1814C160.84 30.1814 161.169 30.8955 161.344 31.7679C161.741 33.7469 163.331 37.3226 163.999 37.738C164.275 37.9093 164.5 38.5591 164.5 39.1815C164.5 40.4897 165.727 43.6495 166.397 44.0659C166.647 44.2216 167.007 45.0593 167.197 45.9277C167.386 46.7962 167.821 48.1669 168.164 48.9733C168.506 49.7798 169.143 51.3184 169.578 52.3924C170.014 53.4663 170.578 54.7262 170.832 55.1924C171.086 55.6586 171.294 56.4592 171.294 56.9708C171.294 57.4828 171.601 58.0203 171.976 58.1648C172.351 58.3098 172.801 59.1572 172.975 60.0476C173.149 60.9385 173.485 62.1066 173.722 62.6436C173.959 63.1806 174.609 64.7182 175.166 66.0607C175.724 67.4031 176.391 68.8827 176.649 69.3489C176.906 69.815 177.117 70.5024 177.117 70.8758C177.117 71.2492 177.445 71.8282 177.845 72.1626C178.245 72.497 178.573 73.2507 178.573 73.8374C178.573 74.4247 178.894 75.3312 179.285 75.8525C179.677 76.3734 180.005 77.0866 180.013 77.4371C180.022 77.7876 180.478 79.1056 181.026 80.366C181.574 81.6264 182.255 83.2071 182.537 83.8783C182.821 84.5495 183.252 85.4282 183.496 85.8309C183.739 86.2336 184.067 86.9478 184.224 87.4174C184.55 88.3932 184.501 88.3825 188.885 88.4586C192.382 88.5196 192.534 88.3986 191.477 86.3942C189.919 83.4394 187.793 78.6985 187.793 78.18C187.793 77.5972 185.267 71.6085 184.353 70.0245C184.062 69.5197 183.723 68.5502 183.601 67.8702C183.309 66.2515 181.621 62.5421 181.001 62.1564C180.733 61.9899 180.514 61.3305 180.514 60.691C180.514 60.0515 180.324 59.4101 180.092 59.2656C179.859 59.1211 179.169 57.6254 178.558 55.9417C177.947 54.2581 177.154 52.5339 176.797 52.1097C176.439 51.686 176.147 50.841 176.147 50.2328C176.147 49.624 175.836 48.5428 175.456 47.8301C175.077 47.1174 174.642 46.205 174.489 45.8023C174.336 45.3996 174.004 44.7406 173.749 44.3378C173.494 43.9351 172.719 42.0679 172.027 40.1885C171.334 38.3091 170.339 35.8689 169.817 34.7651C169.295 33.6619 168.868 32.5128 168.868 32.2116C168.868 31.9109 168.228 30.2873 167.447 28.6042C166.665 26.921 165.676 24.6652 165.25 23.5913C164.824 22.5174 164.153 21.0168 163.76 20.2567C163.366 19.4967 163.044 18.6302 163.044 18.3319C163.044 17.8379 160.384 12.3013 159.002 9.92057C154.678 2.46842 141.847 -1.75558 132.413 1.16651ZM281.207 1.44232C278.211 2.65879 272.751 6.29749 272.73 7.09172C272.721 7.4139 272.427 7.85323 272.075 8.06802C271.406 8.47612 268.347 12.7997 268.347 13.3372C268.347 13.5075 267.83 14.786 267.198 16.1782C266.565 17.5704 265.335 20.4671 264.463 22.615C263.592 24.7629 262.253 27.8695 261.489 29.519C260.724 31.1684 260.098 32.8438 260.098 33.2426C260.098 33.6409 259.77 34.2404 259.37 34.5748C258.969 34.9091 258.642 35.656 258.642 36.2345C258.642 36.8129 258.354 37.7199 258.001 38.2491C257.649 38.7787 256.646 41.1892 255.773 43.6056C254.9 46.022 253.57 49.317 252.818 50.9279C250.984 54.8575 248.937 60.2067 248.937 61.0659C248.937 61.4486 248.5 62.2687 247.966 62.8877C247.432 63.5066 246.996 64.3302 246.996 64.7177C246.996 65.1049 246.701 66.005 246.341 66.7177C245.233 68.9134 244.204 71.3225 243.287 73.8711C242.803 75.2135 241.803 77.5054 241.062 78.964C240.322 80.4226 239.716 81.8876 239.716 82.2195C239.716 82.5515 239.395 83.4448 239.001 84.2048C238.608 84.9649 237.939 86.4655 237.516 87.5394C237.092 88.6134 236.431 90.1139 236.047 90.874C235.663 91.634 235.349 92.4571 235.349 92.7031C235.349 92.9491 234.68 94.6338 233.863 96.4468C231.324 102.078 230.982 102.929 230.982 103.605C230.982 103.966 230.677 104.515 230.305 104.826C229.932 105.137 229.492 106.098 229.327 106.961C229.063 108.337 226.529 111.222 223.642 113.434C220.284 116.007 211.423 117.119 209.522 115.207C209.208 114.891 208.567 114.632 208.098 114.632C206.974 114.632 204.06 112.615 202.368 110.666C200.715 108.761 196.528 100.344 196.528 98.9261C196.528 97.7853 194.749 97.0892 191.796 97.074C188.581 97.0574 187.43 98.7552 189.491 100.475C189.892 100.81 190.219 101.288 190.219 101.538C190.219 102.017 191.863 105.978 192.663 107.425C192.92 107.891 193.131 108.688 193.131 109.196C193.131 109.704 193.458 110.392 193.859 110.727C194.259 111.061 194.587 111.564 194.587 111.844C194.587 112.403 194.785 112.641 198.58 116.649C208.438 127.061 229.181 124.18 234.996 111.592C238.152 104.757 238.746 103.376 238.746 102.863C238.746 102.543 239.269 101.161 239.908 99.7921C243.376 92.3634 244.05 90.7925 244.507 89.0683C244.783 88.0295 245.315 86.8213 245.691 86.3835C246.066 85.9451 246.495 85.1475 246.644 84.6105C247.189 82.6388 256.666 59.3432 259.155 53.8568C259.642 52.7829 260.195 51.2452 260.383 50.4397C260.571 49.6343 261.129 48.3924 261.624 47.6797C262.119 46.967 262.524 46.1743 262.524 45.918C262.524 45.5206 267.039 34.4625 269.049 29.9373C269.407 29.1318 270.499 26.4958 271.477 24.0795C272.455 21.6631 273.447 19.2467 273.682 18.7098C273.917 18.1728 274.247 17.239 274.416 16.6351C274.583 16.0313 274.925 15.5368 275.174 15.5368C275.422 15.5368 275.626 15.2468 275.626 14.8919C275.626 14.0049 279.814 9.67893 280.673 9.67893C281.055 9.67893 281.449 9.43632 281.548 9.13952C282.33 6.77734 293.791 6.606 296.978 8.90911C299.021 10.3853 300.414 10.8402 303.354 10.993C305.127 11.0848 307.174 10.9315 307.904 10.6523L309.231 10.1446L306.076 7.09318C303.038 4.1545 298.571 1.38032 296.879 1.38032C296.431 1.38032 295.93 1.16065 295.765 0.892167C295.17 -0.0753534 283.895 0.350804 281.207 1.44232Z"/>
</mask>
<path fill-rule="evenodd" clip-rule="evenodd" d="M1.07333 0.675914C-0.289788 1.63611 -0.362092 4.12228 0.899603 6.6475C1.397 7.64333 2.08365 9.33722 2.42577 10.4112C2.7674 11.4851 3.19346 12.4736 3.37204 12.6079C3.818 12.9422 6.79414 20.5081 6.79074 21.2984C6.78929 21.6485 7.33424 22.7429 8.00149 23.7304C8.66873 24.7185 9.21465 25.8266 9.21465 26.1936C9.21465 26.5607 9.516 27.5532 9.88432 28.3991C10.2531 29.2451 11.0417 31.1455 11.6376 32.6221C12.233 34.0988 13.1327 36.2286 13.6364 37.3548C14.1406 38.481 14.5526 39.5622 14.5526 39.757C14.5526 39.9523 14.8413 40.4585 15.1941 40.8822C15.5474 41.3064 16.1278 42.6415 16.484 43.8497C16.8406 45.0579 17.3836 46.4857 17.6908 47.0227C17.998 47.5596 18.6463 49.0973 19.1316 50.4397C19.9963 52.8332 20.6136 54.3381 22.3334 58.2502C25.6244 65.7351 30.5664 78.182 30.5664 78.986C30.5664 79.2603 30.7848 79.4849 31.0517 79.4849C31.3186 79.4849 31.5369 79.9086 31.5369 80.4265C31.5369 80.944 31.8674 81.7001 32.2711 82.1068C32.6754 82.5129 33.1451 83.5722 33.3154 84.4601C33.4858 85.3481 33.9196 86.5084 34.2797 87.0381C34.6392 87.5672 34.9338 88.3981 34.9338 88.8838C34.9338 89.3695 35.2614 89.8933 35.6617 90.0475C36.0621 90.2023 36.3896 90.8755 36.3896 91.5437C36.3896 92.212 37.1539 94.3789 38.088 96.3594C39.0222 98.3393 39.7865 100.282 39.7865 100.677C39.7865 101.072 39.9806 101.515 40.2179 101.663C40.4552 101.81 40.7997 102.537 40.9836 103.278C41.1675 104.019 41.8464 105.686 42.4933 106.984C43.1397 108.281 43.6686 109.546 43.6686 109.795C43.6686 111.434 50.7627 119.513 52.2015 119.513C52.5796 119.513 52.8887 119.693 52.8887 119.912C52.8887 123.211 69.8677 123.881 75.211 120.792C76.412 120.098 77.8508 119.326 78.4079 119.076C79.5682 118.556 84.9163 112.761 84.9163 112.024C84.9163 111.756 85.2031 111.189 85.553 110.765C85.9033 110.341 86.5847 109.006 87.067 107.798C87.5494 106.59 88.1264 105.162 88.3496 104.625C89.9835 100.691 91.2248 97.5353 91.2248 97.3171C91.2248 97.1751 89.6307 97.0584 87.6823 97.0584C84.1035 97.0584 82.9782 97.5192 82.9723 98.9866C82.9704 99.403 82.6428 100.372 82.2444 101.141C81.8455 101.911 81.5194 102.941 81.5194 103.431C81.5194 103.922 81.32 104.447 81.0764 104.599C80.8323 104.75 80.1583 105.86 79.5784 107.066C76.33 113.815 65.659 118.335 59.9911 115.361C59.2263 114.96 58.3426 114.632 58.0272 114.632C56.9475 114.632 51.4329 109.799 51.4329 108.853C51.4329 108.607 51.1053 108.132 50.705 107.798C50.3046 107.463 49.9771 106.661 49.9771 106.014C49.9771 105.367 49.6495 104.712 49.2492 104.557C48.8488 104.403 48.5213 103.764 48.5213 103.137C48.5213 102.51 48.3199 101.872 48.0734 101.719C47.8269 101.566 47.4726 100.742 47.2863 99.8873C47.0999 99.033 46.6462 98.0313 46.2784 97.6613C45.9106 97.2913 45.6097 96.4482 45.6097 95.7877C45.6097 95.1273 45.2821 94.4605 44.8818 94.3062C44.4669 94.1461 44.1539 93.4178 44.1539 92.6128C44.1539 91.6829 43.9054 91.2006 43.426 91.2006C42.9038 91.2006 42.6981 90.6641 42.6981 89.3002C42.6981 88.1428 42.4385 87.2997 42.0342 87.1435C41.6693 87.0024 41.2505 86.3752 41.1035 85.7489C40.6362 83.7587 39.4842 80.9381 38.8975 80.3479C38.5859 80.0345 38.3307 79.4244 38.3307 78.9923C38.3307 78.5603 38.0099 77.7807 37.6183 77.2594C37.2262 76.7385 36.8987 75.7076 36.8904 74.9695C36.8812 74.1562 36.6089 73.627 36.1999 73.627C35.8102 73.627 35.4259 72.9568 35.2905 72.0405C34.9721 69.8917 33.8555 67.1239 33.1141 66.6464C32.7807 66.4317 32.5075 65.7941 32.5075 65.2293C32.5075 64.6645 31.8524 62.8076 31.0517 61.103C30.251 59.3983 29.5891 57.6195 29.5803 57.1504C29.5721 56.6813 29.2445 55.8709 28.8524 55.3501C28.4608 54.8287 28.1401 53.9984 28.1401 53.5039C28.1401 53.0099 27.8125 52.4793 27.4122 52.325C27.0118 52.1703 26.6775 51.4634 26.6687 50.7536C26.6605 50.0439 26.3329 49.0368 25.9408 48.5159C25.5492 47.9946 25.2285 47.0881 25.2285 46.5008C25.2285 45.9141 24.9009 45.1604 24.5006 44.826C24.1002 44.4916 23.7659 43.7511 23.7571 43.1799C23.7489 42.6083 23.4213 41.7145 23.0292 41.1936C22.6376 40.6723 22.3169 39.943 22.3169 39.572C22.3169 39.2015 21.9893 38.5688 21.589 38.1661C21.1886 37.7634 20.8611 36.7905 20.8611 36.0046C20.8611 35.2181 20.6572 34.5748 20.4083 34.5748C20.1594 34.5748 19.8173 34.0807 19.6474 33.4764C19.4776 32.8721 19.051 31.7191 18.7002 30.9136C18.3488 30.1082 17.3521 27.8016 16.4859 25.788C15.6192 23.7744 14.6113 21.544 14.2459 20.8313C13.881 20.1186 13.5821 19.1018 13.5821 18.5721C13.5821 18.0425 13.2545 17.3356 12.8542 17.0012C12.4538 16.6668 12.1263 15.9781 12.1263 15.4704C12.1263 14.9627 11.9215 14.1655 11.6711 13.6994C10.9189 12.2989 8.86769 7.55692 8.52606 6.42783C8.35039 5.8479 7.88745 5.10737 7.49729 4.78178C7.10762 4.45618 6.78832 3.67611 6.78832 3.04834C6.78832 0.502132 3.3468 -0.926205 1.07333 0.675914ZM378.988 0.483583C374.463 0.88631 371.983 1.52335 370.968 2.54457C370.537 2.97805 369.887 3.33293 369.525 3.33293C368.06 3.33293 360.063 9.47244 360.063 10.5976C360.063 10.8979 359.881 11.1434 359.659 11.1434C358.483 11.1434 354.462 19.1037 353.762 22.8205C351.967 32.341 353.908 42.4399 358.434 47.1281C359.336 48.0629 360.345 49.2091 360.675 49.6753C361.421 50.7297 367.01 54.5891 367.79 54.5891C368.105 54.5891 369.17 55.0084 370.157 55.5209C372.919 56.9551 374.213 57.4169 376.28 57.7059C377.326 57.8519 378.309 58.1633 378.464 58.3976C378.802 58.9087 382.895 59.8626 387.238 60.442C388.973 60.6734 391.484 61.1127 392.818 61.4183C395.989 62.1447 400.536 62.8276 405.795 63.3665C408.128 63.6057 410.279 63.9513 410.573 64.1349C410.868 64.318 413.327 64.7558 416.036 65.1073C422.761 65.9801 432.365 68.0924 433.136 68.868C433.336 69.0692 434.212 69.2337 435.083 69.2337C435.953 69.2337 436.964 69.5344 437.329 69.9015C437.695 70.269 438.529 70.7401 439.184 70.949C439.839 71.158 441.189 71.8458 442.184 72.4779C443.18 73.1101 444.117 73.627 444.267 73.627C445.479 73.627 451.511 79.4527 452.077 81.1705C452.25 81.6952 452.69 82.4245 453.055 82.7921C453.42 83.1592 453.726 84.158 453.735 85.0113C453.743 85.865 454.071 86.9898 454.463 87.5106C455.401 88.7583 455.427 95.6018 454.502 97.7169C454.132 98.5629 453.354 100.595 452.773 102.232C451.786 105.009 450.915 106.274 447.424 109.994C445.81 111.714 440.529 114.629 439.007 114.639C438.425 114.643 437.075 114.952 436.007 115.326C433.301 116.273 361.906 116.194 360.96 115.242C360.627 114.907 359.734 114.632 358.976 114.632C357.477 114.632 355.656 113.489 352.443 110.534C350.172 108.445 349.109 106.451 345.777 98.0347C345.299 96.8265 344.387 94.6987 343.75 93.306C343.114 91.9133 342.592 90.5953 342.59 90.377C342.588 90.1588 342.266 89.3597 341.872 88.6011C341.479 87.8426 340.384 85.2065 339.438 82.7433C338.493 80.2801 337.396 77.6426 337.002 76.8825C336.607 76.1225 336.285 75.0788 336.285 74.5638C336.285 74.0488 336.071 73.627 335.809 73.627C335.547 73.627 335.186 73.0374 335.006 72.3173C334.826 71.5968 334.386 70.4433 334.029 69.7545C333.671 69.0652 333.378 68.252 333.376 67.9469C333.374 67.6423 333.047 66.7636 332.648 65.9943C332.25 65.2254 331.922 64.2389 331.92 63.8015C331.919 63.3646 331.59 62.7339 331.189 62.3995C330.789 62.0651 330.461 61.5853 330.461 61.3334C330.461 61.081 329.941 59.7352 329.306 58.342C328.67 56.9493 328.031 55.3701 327.886 54.8331C327.74 54.2962 326.646 51.5503 325.455 48.7312C324.263 45.9121 322.393 41.4089 321.299 38.7241C320.204 36.0392 319.003 33.1835 318.629 32.3781C317.399 29.7308 314.448 22.4544 314.437 22.0424C314.388 20.2255 312.668 19.3971 309.244 19.5406L305.778 19.6861L306.761 22.1268C307.302 23.4693 308.052 25.1505 308.427 25.8632C308.803 26.5759 309.11 27.476 309.11 27.8631C309.11 28.7394 310.468 31.5282 311.081 31.909C311.331 32.0647 311.536 32.525 311.536 32.9326C311.536 33.7488 314.135 40.1378 316.747 45.7422C317.67 47.7227 319.256 51.5669 320.271 54.2849C321.286 57.003 322.697 60.5445 323.407 62.1554C324.695 65.0765 326.685 70.1187 327.645 72.8948C327.923 73.7003 328.77 75.6773 329.525 77.2882C330.281 78.8991 331.89 82.6335 333.1 85.5868C334.31 88.5401 335.849 92.0002 336.52 93.2757C337.192 94.5508 337.74 96.0206 337.74 96.5419C337.74 97.0628 337.934 97.6095 338.171 97.7565C338.407 97.9034 338.745 98.7953 338.921 99.7379C339.096 100.681 339.445 101.452 339.694 101.452C339.944 101.452 340.291 102.056 340.466 102.794C340.641 103.532 341.062 104.686 341.401 105.357C341.741 106.028 342.601 107.842 343.314 109.389C344.908 112.847 348.088 116.971 349.608 117.553C350.231 117.791 350.818 118.166 350.913 118.386C351.008 118.606 352.892 119.633 355.101 120.667L359.116 122.548L399.027 122.517L438.937 122.485L442.81 120.923C444.94 120.064 447.229 118.953 447.896 118.453C448.563 117.953 449.62 117.164 450.244 116.698C453.343 114.387 459.542 106.329 459.542 104.614C459.542 104.52 459.804 103.826 460.124 103.07C460.706 101.697 462.014 94.2667 462 92.421C461.977 89.4369 461.052 83.6762 460.375 82.2981C459.945 81.4219 459.476 80.1561 459.332 79.4849C458.614 76.1191 451.34 68.8314 446.293 66.4204C438.659 62.7734 437.391 62.2721 434.942 61.9382C433.506 61.742 432.077 61.3261 431.767 61.0141C431.457 60.7022 430.487 60.4469 429.611 60.4469C428.736 60.4469 427.197 60.1359 426.19 59.7562C425.184 59.3764 422.744 58.9468 420.767 58.8018C418.791 58.6568 416.946 58.3088 416.667 58.0281C416.388 57.7474 414.293 57.5111 412.011 57.5024C409.134 57.4916 407.573 57.2671 406.92 56.7701C406.282 56.2849 404.778 56.0535 402.265 56.0535C400.223 56.0535 397.481 55.7265 396.171 55.3267C394.861 54.9269 392.909 54.5974 391.835 54.5944C390.759 54.5915 389.449 54.2869 388.923 53.9178C388.397 53.5483 387.092 53.1436 386.025 53.0187C383.332 52.7023 379.496 51.6987 377.857 50.881C377.101 50.5042 375.968 50.1957 375.338 50.1957C374.708 50.1957 374.06 49.9794 373.897 49.7148C373.735 49.4503 372.471 48.6897 371.088 48.0239C367.94 46.5082 362.88 41.5134 361.759 38.8139C361.293 37.6906 360.592 36.1124 360.202 35.307C359.336 33.5169 359.547 26.4182 360.542 23.8354C364.19 14.373 369.893 9.11999 378.26 7.51592C380.766 7.03509 388.097 6.83983 406.205 6.771C431.518 6.67532 433.662 6.81347 436.735 8.7407C437.473 9.20347 437.893 9.38653 440.211 10.2545C441.893 10.8847 447.896 16.9851 447.896 18.0644C447.896 18.5218 448.115 19.0324 448.383 19.1989C449.133 19.6656 450.808 23.6406 450.808 24.9562C450.808 25.602 451.009 26.7672 451.256 27.5458C451.502 28.324 451.841 29.7948 452.01 30.8135C452.601 34.3946 457.546 34.2443 458.266 30.6232C458.702 28.4318 458.094 24.2957 457.291 23.9857C456.862 23.8202 456.631 22.9147 456.631 21.3995C456.631 18.8826 452.699 11.1434 451.421 11.1434C451.084 11.1434 450.808 10.9115 450.808 10.6279C450.808 8.58791 441.399 2.4196 436.007 0.923898C433.818 0.317123 385.091 -0.0592433 378.988 0.483583ZM132.413 1.16651C131.18 1.54873 129.898 2.19261 129.564 2.59729C129.23 3.00196 128.565 3.33293 128.087 3.33293C127.212 3.33293 125.295 4.73393 123.81 6.45907C123.37 6.97017 122.198 8.27939 121.207 9.36798C120.215 10.4566 119.269 11.9606 119.105 12.7099C118.942 13.4592 118.607 14.0723 118.361 14.0723C118.115 14.0723 117.914 14.4697 117.914 14.9554C117.914 15.4411 117.594 16.2646 117.202 16.786C116.81 17.3068 116.482 18.2006 116.474 18.7723C116.465 19.3434 116.131 20.0839 115.731 20.4183C115.33 20.7527 115.003 21.6651 115.003 22.4461C115.003 23.2579 114.691 23.9862 114.275 24.1468C113.875 24.3016 113.547 24.7023 113.547 25.0372C113.547 25.3726 112.564 27.9071 111.363 30.6695C110.162 33.432 109.18 36.0729 109.18 36.5381C109.18 37.0033 108.852 37.6574 108.452 37.9918C108.051 38.3262 107.724 38.9018 107.724 39.2708C107.724 39.6398 107.083 41.3152 106.3 42.9939C105.516 44.6727 104.728 46.6527 104.547 47.3932C104.367 48.1342 104.025 48.8611 103.788 49.0085C103.551 49.1564 103.356 49.7861 103.356 50.409C103.356 51.0314 103.029 51.8139 102.629 52.1483C102.228 52.4827 101.901 53.2627 101.901 53.8817C101.901 54.5007 101.619 55.2979 101.276 55.6527C100.538 56.4138 98.9891 60.3815 98.9891 61.5091C98.9891 61.9416 98.6615 62.4215 98.2612 62.5762C97.8608 62.7305 97.5333 63.3709 97.5333 63.9992C97.5333 64.6279 97.2125 65.5681 96.8209 66.0895C96.4288 66.6103 96.1012 67.4373 96.093 67.9259C96.0843 68.415 95.7499 69.1448 95.3496 69.5475C94.9492 69.9503 94.6217 70.7977 94.6217 71.4304C94.6217 72.063 94.2941 72.9104 93.8938 73.3132C93.4934 73.7159 93.1659 74.3705 93.1659 74.7674C93.1659 75.1647 92.6238 76.553 91.9614 77.8535C90.6463 80.4348 87.8279 87.2114 87.8279 87.7918C87.8279 88.2092 93.59 88.7261 94.5003 88.3908C94.8342 88.2677 95.1069 87.9553 95.1069 87.6966C95.1069 87.4374 95.4515 86.8789 95.8727 86.4552C96.2934 86.032 96.5326 85.2788 96.4036 84.7823C96.274 84.2854 96.3657 83.7567 96.6069 83.6069C97.2523 83.2056 100.93 75.1462 100.93 74.1333C100.93 73.8218 101.455 72.4272 102.095 71.034C102.736 69.6413 103.406 68.0074 103.584 67.4031C103.762 66.7987 104.111 66.3047 104.36 66.3047C104.608 66.3047 104.812 65.7975 104.812 65.1776C104.812 64.5576 105.133 63.6243 105.525 63.1029C105.917 62.5821 106.244 61.8591 106.253 61.4969C106.269 60.7998 106.953 59.1435 109.233 54.2849C110.005 52.6413 110.635 50.8557 110.635 50.3177C110.635 49.7793 110.963 49.0656 111.363 48.7312C111.764 48.3968 112.093 47.876 112.094 47.5733C112.096 47.2702 112.39 46.4589 112.747 45.7696C113.104 45.0808 113.546 43.9214 113.728 43.1936C113.909 42.4658 114.614 40.6132 115.295 39.077C115.975 37.5403 116.823 35.6243 117.178 34.8188C117.533 34.0134 118.336 32.0364 118.961 30.4255C119.586 28.8145 120.262 27.4233 120.462 27.334C120.663 27.2442 120.826 26.799 120.826 26.344C120.826 25.889 121.124 25.0836 121.488 24.5544C121.853 24.0248 122.317 23.0421 122.519 22.3709C122.722 21.6997 123.515 19.7866 124.283 18.1201C125.05 16.453 125.679 14.972 125.679 14.8285C125.679 14.5156 127.492 12.3369 128.805 11.0711C130.246 9.68381 134.952 7.62478 138.113 6.99946C140.381 6.55084 146.027 7.67701 146.951 8.76267C147.38 9.26644 148.065 9.67991 148.473 9.68137C149.334 9.68381 152.854 12.8002 152.854 13.5593C152.854 13.8414 153.017 14.0748 153.218 14.0777C153.418 14.0811 154 15.0144 154.512 16.1523C155.024 17.2907 155.734 18.8596 156.089 19.6392C156.445 20.4188 156.736 21.2516 156.736 21.4898C156.736 21.7285 157.364 23.2872 158.132 24.9542C158.9 26.6208 159.678 28.4787 159.863 29.083C160.047 29.6874 160.385 30.1814 160.612 30.1814C160.84 30.1814 161.169 30.8955 161.344 31.7679C161.741 33.7469 163.331 37.3226 163.999 37.738C164.275 37.9093 164.5 38.5591 164.5 39.1815C164.5 40.4897 165.727 43.6495 166.397 44.0659C166.647 44.2216 167.007 45.0593 167.197 45.9277C167.386 46.7962 167.821 48.1669 168.164 48.9733C168.506 49.7798 169.143 51.3184 169.578 52.3924C170.014 53.4663 170.578 54.7262 170.832 55.1924C171.086 55.6586 171.294 56.4592 171.294 56.9708C171.294 57.4828 171.601 58.0203 171.976 58.1648C172.351 58.3098 172.801 59.1572 172.975 60.0476C173.149 60.9385 173.485 62.1066 173.722 62.6436C173.959 63.1806 174.609 64.7182 175.166 66.0607C175.724 67.4031 176.391 68.8827 176.649 69.3489C176.906 69.815 177.117 70.5024 177.117 70.8758C177.117 71.2492 177.445 71.8282 177.845 72.1626C178.245 72.497 178.573 73.2507 178.573 73.8374C178.573 74.4247 178.894 75.3312 179.285 75.8525C179.677 76.3734 180.005 77.0866 180.013 77.4371C180.022 77.7876 180.478 79.1056 181.026 80.366C181.574 81.6264 182.255 83.2071 182.537 83.8783C182.821 84.5495 183.252 85.4282 183.496 85.8309C183.739 86.2336 184.067 86.9478 184.224 87.4174C184.55 88.3932 184.501 88.3825 188.885 88.4586C192.382 88.5196 192.534 88.3986 191.477 86.3942C189.919 83.4394 187.793 78.6985 187.793 78.18C187.793 77.5972 185.267 71.6085 184.353 70.0245C184.062 69.5197 183.723 68.5502 183.601 67.8702C183.309 66.2515 181.621 62.5421 181.001 62.1564C180.733 61.9899 180.514 61.3305 180.514 60.691C180.514 60.0515 180.324 59.4101 180.092 59.2656C179.859 59.1211 179.169 57.6254 178.558 55.9417C177.947 54.2581 177.154 52.5339 176.797 52.1097C176.439 51.686 176.147 50.841 176.147 50.2328C176.147 49.624 175.836 48.5428 175.456 47.8301C175.077 47.1174 174.642 46.205 174.489 45.8023C174.336 45.3996 174.004 44.7406 173.749 44.3378C173.494 43.9351 172.719 42.0679 172.027 40.1885C171.334 38.3091 170.339 35.8689 169.817 34.7651C169.295 33.6619 168.868 32.5128 168.868 32.2116C168.868 31.9109 168.228 30.2873 167.447 28.6042C166.665 26.921 165.676 24.6652 165.25 23.5913C164.824 22.5174 164.153 21.0168 163.76 20.2567C163.366 19.4967 163.044 18.6302 163.044 18.3319C163.044 17.8379 160.384 12.3013 159.002 9.92057C154.678 2.46842 141.847 -1.75558 132.413 1.16651ZM281.207 1.44232C278.211 2.65879 272.751 6.29749 272.73 7.09172C272.721 7.4139 272.427 7.85323 272.075 8.06802C271.406 8.47612 268.347 12.7997 268.347 13.3372C268.347 13.5075 267.83 14.786 267.198 16.1782C266.565 17.5704 265.335 20.4671 264.463 22.615C263.592 24.7629 262.253 27.8695 261.489 29.519C260.724 31.1684 260.098 32.8438 260.098 33.2426C260.098 33.6409 259.77 34.2404 259.37 34.5748C258.969 34.9091 258.642 35.656 258.642 36.2345C258.642 36.8129 258.354 37.7199 258.001 38.2491C257.649 38.7787 256.646 41.1892 255.773 43.6056C254.9 46.022 253.57 49.317 252.818 50.9279C250.984 54.8575 248.937 60.2067 248.937 61.0659C248.937 61.4486 248.5 62.2687 247.966 62.8877C247.432 63.5066 246.996 64.3302 246.996 64.7177C246.996 65.1049 246.701 66.005 246.341 66.7177C245.233 68.9134 244.204 71.3225 243.287 73.8711C242.803 75.2135 241.803 77.5054 241.062 78.964C240.322 80.4226 239.716 81.8876 239.716 82.2195C239.716 82.5515 239.395 83.4448 239.001 84.2048C238.608 84.9649 237.939 86.4655 237.516 87.5394C237.092 88.6134 236.431 90.1139 236.047 90.874C235.663 91.634 235.349 92.4571 235.349 92.7031C235.349 92.9491 234.68 94.6338 233.863 96.4468C231.324 102.078 230.982 102.929 230.982 103.605C230.982 103.966 230.677 104.515 230.305 104.826C229.932 105.137 229.492 106.098 229.327 106.961C229.063 108.337 226.529 111.222 223.642 113.434C220.284 116.007 211.423 117.119 209.522 115.207C209.208 114.891 208.567 114.632 208.098 114.632C206.974 114.632 204.06 112.615 202.368 110.666C200.715 108.761 196.528 100.344 196.528 98.9261C196.528 97.7853 194.749 97.0892 191.796 97.074C188.581 97.0574 187.43 98.7552 189.491 100.475C189.892 100.81 190.219 101.288 190.219 101.538C190.219 102.017 191.863 105.978 192.663 107.425C192.92 107.891 193.131 108.688 193.131 109.196C193.131 109.704 193.458 110.392 193.859 110.727C194.259 111.061 194.587 111.564 194.587 111.844C194.587 112.403 194.785 112.641 198.58 116.649C208.438 127.061 229.181 124.18 234.996 111.592C238.152 104.757 238.746 103.376 238.746 102.863C238.746 102.543 239.269 101.161 239.908 99.7921C243.376 92.3634 244.05 90.7925 244.507 89.0683C244.783 88.0295 245.315 86.8213 245.691 86.3835C246.066 85.9451 246.495 85.1475 246.644 84.6105C247.189 82.6388 256.666 59.3432 259.155 53.8568C259.642 52.7829 260.195 51.2452 260.383 50.4397C260.571 49.6343 261.129 48.3924 261.624 47.6797C262.119 46.967 262.524 46.1743 262.524 45.918C262.524 45.5206 267.039 34.4625 269.049 29.9373C269.407 29.1318 270.499 26.4958 271.477 24.0795C272.455 21.6631 273.447 19.2467 273.682 18.7098C273.917 18.1728 274.247 17.239 274.416 16.6351C274.583 16.0313 274.925 15.5368 275.174 15.5368C275.422 15.5368 275.626 15.2468 275.626 14.8919C275.626 14.0049 279.814 9.67893 280.673 9.67893C281.055 9.67893 281.449 9.43632 281.548 9.13952C282.33 6.77734 293.791 6.606 296.978 8.90911C299.021 10.3853 300.414 10.8402 303.354 10.993C305.127 11.0848 307.174 10.9315 307.904 10.6523L309.231 10.1446L306.076 7.09318C303.038 4.1545 298.571 1.38032 296.879 1.38032C296.431 1.38032 295.93 1.16065 295.765 0.892167C295.17 -0.0753534 283.895 0.350804 281.207 1.44232Z" fill="#0197FE" stroke="#0197FE" stroke-width="48" mask="url(#path-1-inside-1_337_29)"/>
</svg>
